<?xml version="1.0" encoding="us-ascii" standalone="no"?><svg xmlns="http://www.w3.org/2000/svg" xmlns:xlink="http://www.w3.org/1999/xlink" contentStyleType="text/css" height="638px" preserveAspectRatio="none" style="width:1060px;height:638px;background:#FFFFFF;" version="1.1" viewBox="0 0 1060 638" width="1060px" zoomAndPan="magnify"><defs/><g><!--class Users--><g id="elem_Users"><rect codeLine="5" fill="#F1F1F1" height="145.7813" id="Users" rx="2.5" ry="2.5" style="stroke:#181818;stroke-width:0.5;" width="97" x="24" y="205.5"/><ellipse cx="51.15" cy="221.5" fill="#DA70D6" rx="11" ry="11" style="stroke:#181818;stroke-width:1.0;"/><path d="M51.5875,219.0313 L53.4313,219.0313 L53.4313,220.625 C53.4313,221.0156 53.4625,221.1875 53.5563,221.3281 C53.7125,221.5781 53.9938,221.7344 54.2906,221.7344 C54.5563,221.7344 54.8063,221.6094 54.9781,221.3906 C55.1188,221.2188 55.1344,221.0938 55.1344,220.625 L55.1344,217.3438 L46.3688,217.3438 L46.3688,220.625 C46.3688,221.0156 46.4,221.1875 46.4781,221.3281 C46.6344,221.5938 46.9313,221.7344 47.2125,221.7344 C47.4938,221.7344 47.7438,221.6094 47.9156,221.3906 C48.025,221.2188 48.0563,221.0781 48.0563,220.625 L48.0563,219.0313 L49.8844,219.0313 L49.8844,225.5469 L48.775,225.5469 C48.3375,225.5469 48.2125,225.5625 48.0563,225.6719 C47.8063,225.8281 47.65,226.1094 47.65,226.4063 C47.65,226.6563 47.7906,226.9219 48.0094,227.0781 C48.1656,227.2031 48.3844,227.25 48.775,227.25 L52.7125,227.25 C53.0406,227.25 53.3063,227.2031 53.4156,227.125 C53.6813,226.9844 53.8219,226.6875 53.8219,226.4063 C53.8219,226.125 53.6969,225.875 53.4625,225.7031 C53.3063,225.5781 53.1656,225.5469 52.7125,225.5469 L51.5875,225.5469 L51.5875,219.0313 Z " fill="#000000"/><text fill="#000000" font-family="sans-serif" font-size="14" lengthAdjust="spacing" textLength="38" x="67.85" y="226.3467">Users</text><line style="stroke:#181818;stroke-width:0.5;" x1="25" x2="120" y1="237.5" y2="237.5"/><text fill="#000000" font-family="sans-serif" font-size="14" lengthAdjust="spacing" text-decoration="underline" textLength="50" x="30" y="254.4951">user_id</text><text fill="#000000" font-family="sans-serif" font-size="14" lengthAdjust="spacing" textLength="70" x="30" y="270.792">username</text><text fill="#000000" font-family="sans-serif" font-size="14" lengthAdjust="spacing" textLength="67" x="30" y="287.0889">password</text><text fill="#000000" font-family="sans-serif" font-size="14" lengthAdjust="spacing" textLength="40" x="30" y="303.3857">name</text><text fill="#000000" font-family="sans-serif" font-size="14" lengthAdjust="spacing" textLength="61" x="30" y="319.6826">surname</text><text fill="#0000FF" font-family="sans-serif" font-size="14" lengthAdjust="spacing" textLength="85" x="30" y="335.9795">user_role_id</text><line style="stroke:#181818;stroke-width:0.5;" x1="25" x2="120" y1="343.2813" y2="343.2813"/></g><!--class Users_Archive--><g id="elem_Users_Archive"><rect codeLine="14" fill="#F1F1F1" height="129.4844" id="Users_Archive" rx="2.5" ry="2.5" style="stroke:#181818;stroke-width:0.5;" width="131" x="7" y="485.5"/><ellipse cx="22" cy="501.5" fill="#DA70D6" rx="11" ry="11" style="stroke:#181818;stroke-width:1.0;"/><path d="M22.4375,499.0313 L24.2813,499.0313 L24.2813,500.625 C24.2813,501.0156 24.3125,501.1875 24.4063,501.3281 C24.5625,501.5781 24.8438,501.7344 25.1406,501.7344 C25.4063,501.7344 25.6563,501.6094 25.8281,501.3906 C25.9688,501.2188 25.9844,501.0938 25.9844,500.625 L25.9844,497.3438 L17.2188,497.3438 L17.2188,500.625 C17.2188,501.0156 17.25,501.1875 17.3281,501.3281 C17.4844,501.5938 17.7813,501.7344 18.0625,501.7344 C18.3438,501.7344 18.5938,501.6094 18.7656,501.3906 C18.875,501.2188 18.9063,501.0781 18.9063,500.625 L18.9063,499.0313 L20.7344,499.0313 L20.7344,505.5469 L19.625,505.5469 C19.1875,505.5469 19.0625,505.5625 18.9063,505.6719 C18.6563,505.8281 18.5,506.1094 18.5,506.4063 C18.5,506.6563 18.6406,506.9219 18.8594,507.0781 C19.0156,507.2031 19.2344,507.25 19.625,507.25 L23.5625,507.25 C23.8906,507.25 24.1563,507.2031 24.2656,507.125 C24.5313,506.9844 24.6719,506.6875 24.6719,506.4063 C24.6719,506.125 24.5469,505.875 24.3125,505.7031 C24.1563,505.5781 24.0156,505.5469 23.5625,505.5469 L22.4375,505.5469 L22.4375,499.0313 Z " fill="#000000"/><text fill="#000000" font-family="sans-serif" font-size="14" lengthAdjust="spacing" textLength="99" x="36" y="506.3467">Users_Archive</text><line style="stroke:#181818;stroke-width:0.5;" x1="8" x2="137" y1="517.5" y2="517.5"/><text fill="#000000" font-family="sans-serif" font-size="14" lengthAdjust="spacing" text-decoration="underline" textLength="50" x="13" y="534.4951">user_id</text><text fill="#000000" font-family="sans-serif" font-size="14" lengthAdjust="spacing" textLength="70" x="13" y="550.792">username</text><text fill="#000000" font-family="sans-serif" font-size="14" lengthAdjust="spacing" textLength="40" x="13" y="567.0889">name</text><text fill="#000000" font-family="sans-serif" font-size="14" lengthAdjust="spacing" textLength="61" x="13" y="583.3857">surname</text><text fill="#000000" font-family="sans-serif" font-size="14" lengthAdjust="spacing" textLength="101" x="13" y="599.6826">archived_date</text><line style="stroke:#181818;stroke-width:0.5;" x1="8" x2="137" y1="606.9844" y2="606.9844"/></g><!--class Incidents--><g id="elem_Incidents"><rect codeLine="22" fill="#F1F1F1" height="227.2656" id="Incidents" rx="2.5" ry="2.5" style="stroke:#181818;stroke-width:0.5;" width="132" x="534.5" y="165"/><ellipse cx="564.8" cy="181" fill="#DA70D6" rx="11" ry="11" style="stroke:#181818;stroke-width:1.0;"/><path d="M565.2375,178.5313 L567.0813,178.5313 L567.0813,180.125 C567.0813,180.5156 567.1125,180.6875 567.2063,180.8281 C567.3625,181.0781 567.6438,181.2344 567.9406,181.2344 C568.2063,181.2344 568.4563,181.1094 568.6281,180.8906 C568.7688,180.7188 568.7844,180.5938 568.7844,180.125 L568.7844,176.8438 L560.0188,176.8438 L560.0188,180.125 C560.0188,180.5156 560.05,180.6875 560.1281,180.8281 C560.2844,181.0938 560.5813,181.2344 560.8625,181.2344 C561.1438,181.2344 561.3938,181.1094 561.5656,180.8906 C561.675,180.7188 561.7063,180.5781 561.7063,180.125 L561.7063,178.5313 L563.5344,178.5313 L563.5344,185.0469 L562.425,185.0469 C561.9875,185.0469 561.8625,185.0625 561.7063,185.1719 C561.4563,185.3281 561.3,185.6094 561.3,185.9063 C561.3,186.1563 561.4406,186.4219 561.6594,186.5781 C561.8156,186.7031 562.0344,186.75 562.425,186.75 L566.3625,186.75 C566.6906,186.75 566.9563,186.7031 567.0656,186.625 C567.3313,186.4844 567.4719,186.1875 567.4719,185.9063 C567.4719,185.625 567.3469,185.375 567.1125,185.2031 C566.9563,185.0781 566.8156,185.0469 566.3625,185.0469 L565.2375,185.0469 L565.2375,178.5313 Z " fill="#000000"/><text fill="#000000" font-family="sans-serif" font-size="14" lengthAdjust="spacing" textLength="66" x="582.2" y="185.8467">Incidents</text><line style="stroke:#181818;stroke-width:0.5;" x1="535.5" x2="665.5" y1="197" y2="197"/><text fill="#000000" font-family="sans-serif" font-size="14" lengthAdjust="spacing" text-decoration="underline" textLength="79" x="540.5" y="213.9951">incident_id</text><text fill="#000000" font-family="sans-serif" font-size="14" lengthAdjust="spacing" textLength="31" x="540.5" y="230.292">title</text><text fill="#000000" font-family="sans-serif" font-size="14" lengthAdjust="spacing" textLength="82" x="540.5" y="246.5889">description</text><text fill="#000000" font-family="sans-serif" font-size="14" lengthAdjust="spacing" textLength="58" x="540.5" y="262.8857">location</text><text fill="#000000" font-family="sans-serif" font-size="14" lengthAdjust="spacing" textLength="34" x="540.5" y="279.1826">time</text><text fill="#0000FF" font-family="sans-serif" font-size="14" lengthAdjust="spacing" textLength="67" x="540.5" y="295.4795">author_id</text><text fill="#0000FF" font-family="sans-serif" font-size="14" lengthAdjust="spacing" textLength="120" x="540.5" y="311.7764">incident_type_id</text><text fill="#0000FF" font-family="sans-serif" font-size="14" lengthAdjust="spacing" textLength="71" x="540.5" y="328.0732">vehicle_id</text><text fill="#0000FF" font-family="sans-serif" font-size="14" lengthAdjust="spacing" textLength="64" x="540.5" y="344.3701">status_id</text><text fill="#0000FF" font-family="sans-serif" font-size="14" lengthAdjust="spacing" textLength="59" x="540.5" y="360.667">route_id</text><text fill="#000000" font-family="sans-serif" font-size="14" lengthAdjust="spacing" textLength="62" x="540.5" y="376.9639">file_data</text><line style="stroke:#181818;stroke-width:0.5;" x1="535.5" x2="665.5" y1="384.2656" y2="384.2656"/></g><!--class Incidents_Archive--><g id="elem_Incidents_Archive"><rect codeLine="36" fill="#F1F1F1" height="162.0781" id="Incidents_Archive" rx="2.5" ry="2.5" style="stroke:#181818;stroke-width:0.5;" width="159" x="259" y="469"/><ellipse cx="274" cy="485" fill="#DA70D6" rx="11" ry="11" style="stroke:#181818;stroke-width:1.0;"/><path d="M274.4375,482.5313 L276.2813,482.5313 L276.2813,484.125 C276.2813,484.5156 276.3125,484.6875 276.4063,484.8281 C276.5625,485.0781 276.8438,485.2344 277.1406,485.2344 C277.4063,485.2344 277.6563,485.1094 277.8281,484.8906 C277.9688,484.7188 277.9844,484.5938 277.9844,484.125 L277.9844,480.8438 L269.2188,480.8438 L269.2188,484.125 C269.2188,484.5156 269.25,484.6875 269.3281,484.8281 C269.4844,485.0938 269.7813,485.2344 270.0625,485.2344 C270.3438,485.2344 270.5938,485.1094 270.7656,484.8906 C270.875,484.7188 270.9063,484.5781 270.9063,484.125 L270.9063,482.5313 L272.7344,482.5313 L272.7344,489.0469 L271.625,489.0469 C271.1875,489.0469 271.0625,489.0625 270.9063,489.1719 C270.6563,489.3281 270.5,489.6094 270.5,489.9063 C270.5,490.1563 270.6406,490.4219 270.8594,490.5781 C271.0156,490.7031 271.2344,490.75 271.625,490.75 L275.5625,490.75 C275.8906,490.75 276.1563,490.7031 276.2656,490.625 C276.5313,490.4844 276.6719,490.1875 276.6719,489.9063 C276.6719,489.625 276.5469,489.375 276.3125,489.2031 C276.1563,489.0781 276.0156,489.0469 275.5625,489.0469 L274.4375,489.0469 L274.4375,482.5313 Z " fill="#000000"/><text fill="#000000" font-family="sans-serif" font-size="14" lengthAdjust="spacing" textLength="127" x="288" y="489.8467">Incidents_Archive</text><line style="stroke:#181818;stroke-width:0.5;" x1="260" x2="417" y1="501" y2="501"/><text fill="#000000" font-family="sans-serif" font-size="14" lengthAdjust="spacing" text-decoration="underline" textLength="79" x="265" y="517.9951">incident_id</text><text fill="#000000" font-family="sans-serif" font-size="14" lengthAdjust="spacing" textLength="31" x="265" y="534.292">title</text><text fill="#000000" font-family="sans-serif" font-size="14" lengthAdjust="spacing" textLength="82" x="265" y="550.5889">description</text><text fill="#000000" font-family="sans-serif" font-size="14" lengthAdjust="spacing" textLength="58" x="265" y="566.8857">location</text><text fill="#000000" font-family="sans-serif" font-size="14" lengthAdjust="spacing" textLength="34" x="265" y="583.1826">time</text><text fill="#0000FF" font-family="sans-serif" font-size="14" lengthAdjust="spacing" textLength="67" x="265" y="599.4795">author_id</text><text fill="#000000" font-family="sans-serif" font-size="14" lengthAdjust="spacing" textLength="101" x="265" y="615.7764">archived_date</text><line style="stroke:#181818;stroke-width:0.5;" x1="260" x2="417" y1="623.0781" y2="623.0781"/></g><!--class Comments--><g id="elem_Comments"><rect codeLine="46" fill="#F1F1F1" height="129.4844" id="Comments" rx="2.5" ry="2.5" style="stroke:#181818;stroke-width:0.5;" width="120" x="933.5" y="214"/><ellipse cx="952.55" cy="230" fill="#DA70D6" rx="11" ry="11" style="stroke:#181818;stroke-width:1.0;"/><path d="M952.9875,227.5313 L954.8313,227.5313 L954.8313,229.125 C954.8313,229.5156 954.8625,229.6875 954.9563,229.8281 C955.1125,230.0781 955.3938,230.2344 955.6906,230.2344 C955.9563,230.2344 956.2063,230.1094 956.3781,229.8906 C956.5188,229.7188 956.5344,229.5938 956.5344,229.125 L956.5344,225.8438 L947.7688,225.8438 L947.7688,229.125 C947.7688,229.5156 947.8,229.6875 947.8781,229.8281 C948.0344,230.0938 948.3313,230.2344 948.6125,230.2344 C948.8938,230.2344 949.1438,230.1094 949.3156,229.8906 C949.425,229.7188 949.4563,229.5781 949.4563,229.125 L949.4563,227.5313 L951.2844,227.5313 L951.2844,234.0469 L950.175,234.0469 C949.7375,234.0469 949.6125,234.0625 949.4563,234.1719 C949.2063,234.3281 949.05,234.6094 949.05,234.9063 C949.05,235.1563 949.1906,235.4219 949.4094,235.5781 C949.5656,235.7031 949.7844,235.75 950.175,235.75 L954.1125,235.75 C954.4406,235.75 954.7063,235.7031 954.8156,235.625 C955.0813,235.4844 955.2219,235.1875 955.2219,234.9063 C955.2219,234.625 955.0969,234.375 954.8625,234.2031 C954.7063,234.0781 954.5656,234.0469 954.1125,234.0469 L952.9875,234.0469 L952.9875,227.5313 Z " fill="#000000"/><text fill="#000000" font-family="sans-serif" font-size="14" lengthAdjust="spacing" textLength="79" x="967.45" y="234.8467">Comments</text><line style="stroke:#181818;stroke-width:0.5;" x1="934.5" x2="1052.5" y1="246" y2="246"/><text fill="#000000" font-family="sans-serif" font-size="14" lengthAdjust="spacing" text-decoration="underline" textLength="90" x="939.5" y="262.9951">comment_id</text><text fill="#0000FF" font-family="sans-serif" font-size="14" lengthAdjust="spacing" textLength="79" x="939.5" y="279.292">incident_id</text><text fill="#0000FF" font-family="sans-serif" font-size="14" lengthAdjust="spacing" textLength="50" x="939.5" y="295.5889">user_id</text><text fill="#000000" font-family="sans-serif" font-size="14" lengthAdjust="spacing" textLength="108" x="939.5" y="311.8857">comment_text</text><text fill="#000000" font-family="sans-serif" font-size="14" lengthAdjust="spacing" textLength="80" x="939.5" y="328.1826">timestamp</text><line style="stroke:#181818;stroke-width:0.5;" x1="934.5" x2="1052.5" y1="335.4844" y2="335.4844"/></g><!--class IncidentTypes--><g id="elem_IncidentTypes"><rect codeLine="54" fill="#F1F1F1" height="80.5938" id="IncidentTypes" rx="2.5" ry="2.5" style="stroke:#181818;stroke-width:0.5;" width="135" x="533" y="7"/><ellipse cx="548.45" cy="23" fill="#DA70D6" rx="11" ry="11" style="stroke:#181818;stroke-width:1.0;"/><path d="M548.8875,20.5313 L550.7313,20.5313 L550.7313,22.125 C550.7313,22.5156 550.7625,22.6875 550.8563,22.8281 C551.0125,23.0781 551.2938,23.2344 551.5906,23.2344 C551.8563,23.2344 552.1063,23.1094 552.2781,22.8906 C552.4188,22.7188 552.4344,22.5938 552.4344,22.125 L552.4344,18.8438 L543.6688,18.8438 L543.6688,22.125 C543.6688,22.5156 543.7,22.6875 543.7781,22.8281 C543.9344,23.0938 544.2313,23.2344 544.5125,23.2344 C544.7938,23.2344 545.0438,23.1094 545.2156,22.8906 C545.325,22.7188 545.3563,22.5781 545.3563,22.125 L545.3563,20.5313 L547.1844,20.5313 L547.1844,27.0469 L546.075,27.0469 C545.6375,27.0469 545.5125,27.0625 545.3563,27.1719 C545.1063,27.3281 544.95,27.6094 544.95,27.9063 C544.95,28.1563 545.0906,28.4219 545.3094,28.5781 C545.4656,28.7031 545.6844,28.75 546.075,28.75 L550.0125,28.75 C550.3406,28.75 550.6063,28.7031 550.7156,28.625 C550.9813,28.4844 551.1219,28.1875 551.1219,27.9063 C551.1219,27.625 550.9969,27.375 550.7625,27.2031 C550.6063,27.0781 550.4656,27.0469 550.0125,27.0469 L548.8875,27.0469 L548.8875,20.5313 Z " fill="#000000"/><text fill="#000000" font-family="sans-serif" font-size="14" lengthAdjust="spacing" textLength="102" x="562.55" y="27.8467">IncidentTypes</text><line style="stroke:#181818;stroke-width:0.5;" x1="534" x2="667" y1="39" y2="39"/><text fill="#000000" font-family="sans-serif" font-size="14" lengthAdjust="spacing" text-decoration="underline" textLength="54" x="539" y="55.9951">type_id</text><text fill="#000000" font-family="sans-serif" font-size="14" lengthAdjust="spacing" textLength="123" x="539" y="72.292">type_description</text><line style="stroke:#181818;stroke-width:0.5;" x1="534" x2="667" y1="79.5938" y2="79.5938"/></g><!--class Vehicle--><g id="elem_Vehicle"><rect codeLine="59" fill="#F1F1F1" height="96.8906" id="Vehicle" rx="2.5" ry="2.5" style="stroke:#181818;stroke-width:0.5;" width="126" x="453.5" y="501.5"/><ellipse cx="486.95" cy="517.5" fill="#DA70D6" rx="11" ry="11" style="stroke:#181818;stroke-width:1.0;"/><path d="M487.3875,515.0313 L489.2313,515.0313 L489.2313,516.625 C489.2313,517.0156 489.2625,517.1875 489.3563,517.3281 C489.5125,517.5781 489.7938,517.7344 490.0906,517.7344 C490.3563,517.7344 490.6063,517.6094 490.7781,517.3906 C490.9188,517.2188 490.9344,517.0938 490.9344,516.625 L490.9344,513.3438 L482.1688,513.3438 L482.1688,516.625 C482.1688,517.0156 482.2,517.1875 482.2781,517.3281 C482.4344,517.5938 482.7313,517.7344 483.0125,517.7344 C483.2938,517.7344 483.5438,517.6094 483.7156,517.3906 C483.825,517.2188 483.8563,517.0781 483.8563,516.625 L483.8563,515.0313 L485.6844,515.0313 L485.6844,521.5469 L484.575,521.5469 C484.1375,521.5469 484.0125,521.5625 483.8563,521.6719 C483.6063,521.8281 483.45,522.1094 483.45,522.4063 C483.45,522.6563 483.5906,522.9219 483.8094,523.0781 C483.9656,523.2031 484.1844,523.25 484.575,523.25 L488.5125,523.25 C488.8406,523.25 489.1063,523.2031 489.2156,523.125 C489.4813,522.9844 489.6219,522.6875 489.6219,522.4063 C489.6219,522.125 489.4969,521.875 489.2625,521.7031 C489.1063,521.5781 488.9656,521.5469 488.5125,521.5469 L487.3875,521.5469 L487.3875,515.0313 Z " fill="#000000"/><text fill="#000000" font-family="sans-serif" font-size="14" lengthAdjust="spacing" textLength="53" x="505.05" y="522.3467">Vehicle</text><line style="stroke:#181818;stroke-width:0.5;" x1="454.5" x2="578.5" y1="533.5" y2="533.5"/><text fill="#000000" font-family="sans-serif" font-size="14" lengthAdjust="spacing" text-decoration="underline" textLength="71" x="459.5" y="550.4951">vehicle_id</text><text fill="#000000" font-family="sans-serif" font-size="14" lengthAdjust="spacing" textLength="92" x="459.5" y="566.792">vehicle_type</text><text fill="#000000" font-family="sans-serif" font-size="14" lengthAdjust="spacing" textLength="114" x="459.5" y="583.0889">vehicle_number</text><line style="stroke:#181818;stroke-width:0.5;" x1="454.5" x2="578.5" y1="590.3906" y2="590.3906"/></g><!--class Routes--><g id="elem_Routes"><rect codeLine="65" fill="#F1F1F1" height="80.5938" id="Routes" rx="2.5" ry="2.5" style="stroke:#181818;stroke-width:0.5;" width="140" x="614.5" y="509.5"/><ellipse cx="655.6" cy="525.5" fill="#DA70D6" rx="11" ry="11" style="stroke:#181818;stroke-width:1.0;"/><path d="M656.0375,523.0313 L657.8813,523.0313 L657.8813,524.625 C657.8813,525.0156 657.9125,525.1875 658.0063,525.3281 C658.1625,525.5781 658.4438,525.7344 658.7406,525.7344 C659.0063,525.7344 659.2563,525.6094 659.4281,525.3906 C659.5688,525.2188 659.5844,525.0938 659.5844,524.625 L659.5844,521.3438 L650.8188,521.3438 L650.8188,524.625 C650.8188,525.0156 650.85,525.1875 650.9281,525.3281 C651.0844,525.5938 651.3813,525.7344 651.6625,525.7344 C651.9438,525.7344 652.1938,525.6094 652.3656,525.3906 C652.475,525.2188 652.5063,525.0781 652.5063,524.625 L652.5063,523.0313 L654.3344,523.0313 L654.3344,529.5469 L653.225,529.5469 C652.7875,529.5469 652.6625,529.5625 652.5063,529.6719 C652.2563,529.8281 652.1,530.1094 652.1,530.4063 C652.1,530.6563 652.2406,530.9219 652.4594,531.0781 C652.6156,531.2031 652.8344,531.25 653.225,531.25 L657.1625,531.25 C657.4906,531.25 657.7563,531.2031 657.8656,531.125 C658.1313,530.9844 658.2719,530.6875 658.2719,530.4063 C658.2719,530.125 658.1469,529.875 657.9125,529.7031 C657.7563,529.5781 657.6156,529.5469 657.1625,529.5469 L656.0375,529.5469 L656.0375,523.0313 Z " fill="#000000"/><text fill="#000000" font-family="sans-serif" font-size="14" lengthAdjust="spacing" textLength="50" x="675.4" y="530.3467">Routes</text><line style="stroke:#181818;stroke-width:0.5;" x1="615.5" x2="753.5" y1="541.5" y2="541.5"/><text fill="#000000" font-family="sans-serif" font-size="14" lengthAdjust="spacing" text-decoration="underline" textLength="59" x="620.5" y="558.4951">route_id</text><text fill="#000000" font-family="sans-serif" font-size="14" lengthAdjust="spacing" textLength="128" x="620.5" y="574.792">route_description</text><line style="stroke:#181818;stroke-width:0.5;" x1="615.5" x2="753.5" y1="582.0938" y2="582.0938"/></g><!--class IncidentReports--><g id="elem_IncidentReports"><rect codeLine="70" fill="#F1F1F1" height="113.1875" id="IncidentReports" rx="2.5" ry="2.5" style="stroke:#181818;stroke-width:0.5;" width="149" x="749" y="222"/><ellipse cx="764" cy="238" fill="#DA70D6" rx="11" ry="11" style="stroke:#181818;stroke-width:1.0;"/><path d="M764.4375,235.5313 L766.2813,235.5313 L766.2813,237.125 C766.2813,237.5156 766.3125,237.6875 766.4063,237.8281 C766.5625,238.0781 766.8438,238.2344 767.1406,238.2344 C767.4063,238.2344 767.6563,238.1094 767.8281,237.8906 C767.9688,237.7188 767.9844,237.5938 767.9844,237.125 L767.9844,233.8438 L759.2188,233.8438 L759.2188,237.125 C759.2188,237.5156 759.25,237.6875 759.3281,237.8281 C759.4844,238.0938 759.7813,238.2344 760.0625,238.2344 C760.3438,238.2344 760.5938,238.1094 760.7656,237.8906 C760.875,237.7188 760.9063,237.5781 760.9063,237.125 L760.9063,235.5313 L762.7344,235.5313 L762.7344,242.0469 L761.625,242.0469 C761.1875,242.0469 761.0625,242.0625 760.9063,242.1719 C760.6563,242.3281 760.5,242.6094 760.5,242.9063 C760.5,243.1563 760.6406,243.4219 760.8594,243.5781 C761.0156,243.7031 761.2344,243.75 761.625,243.75 L765.5625,243.75 C765.8906,243.75 766.1563,243.7031 766.2656,243.625 C766.5313,243.4844 766.6719,243.1875 766.6719,242.9063 C766.6719,242.625 766.5469,242.375 766.3125,242.2031 C766.1563,242.0781 766.0156,242.0469 765.5625,242.0469 L764.4375,242.0469 L764.4375,235.5313 Z " fill="#000000"/><text fill="#000000" font-family="sans-serif" font-size="14" lengthAdjust="spacing" textLength="117" x="778" y="242.8467">IncidentReports</text><line style="stroke:#181818;stroke-width:0.5;" x1="750" x2="897" y1="254" y2="254"/><text fill="#000000" font-family="sans-serif" font-size="14" lengthAdjust="spacing" text-decoration="underline" textLength="67" x="755" y="270.9951">report_id</text><text fill="#0000FF" font-family="sans-serif" font-size="14" lengthAdjust="spacing" textLength="79" x="755" y="287.292">incident_id</text><text fill="#000000" font-family="sans-serif" font-size="14" lengthAdjust="spacing" textLength="102" x="755" y="303.5889">report_details</text><text fill="#000000" font-family="sans-serif" font-size="14" lengthAdjust="spacing" textLength="87" x="755" y="319.8857">report_date</text><line style="stroke:#181818;stroke-width:0.5;" x1="750" x2="897" y1="327.1875" y2="327.1875"/></g><!--class UserRoles--><g id="elem_UserRoles"><rect codeLine="77" fill="#F1F1F1" height="80.5938" id="UserRoles" rx="2.5" ry="2.5" style="stroke:#181818;stroke-width:0.5;" width="102" x="21.5" y="7"/><ellipse cx="36.5" cy="23" fill="#DA70D6" rx="11" ry="11" style="stroke:#181818;stroke-width:1.0;"/><path d="M36.9375,20.5313 L38.7813,20.5313 L38.7813,22.125 C38.7813,22.5156 38.8125,22.6875 38.9063,22.8281 C39.0625,23.0781 39.3438,23.2344 39.6406,23.2344 C39.9063,23.2344 40.1563,23.1094 40.3281,22.8906 C40.4688,22.7188 40.4844,22.5938 40.4844,22.125 L40.4844,18.8438 L31.7188,18.8438 L31.7188,22.125 C31.7188,22.5156 31.75,22.6875 31.8281,22.8281 C31.9844,23.0938 32.2813,23.2344 32.5625,23.2344 C32.8438,23.2344 33.0938,23.1094 33.2656,22.8906 C33.375,22.7188 33.4063,22.5781 33.4063,22.125 L33.4063,20.5313 L35.2344,20.5313 L35.2344,27.0469 L34.125,27.0469 C33.6875,27.0469 33.5625,27.0625 33.4063,27.1719 C33.1563,27.3281 33,27.6094 33,27.9063 C33,28.1563 33.1406,28.4219 33.3594,28.5781 C33.5156,28.7031 33.7344,28.75 34.125,28.75 L38.0625,28.75 C38.3906,28.75 38.6563,28.7031 38.7656,28.625 C39.0313,28.4844 39.1719,28.1875 39.1719,27.9063 C39.1719,27.625 39.0469,27.375 38.8125,27.2031 C38.6563,27.0781 38.5156,27.0469 38.0625,27.0469 L36.9375,27.0469 L36.9375,20.5313 Z " fill="#000000"/><text fill="#000000" font-family="sans-serif" font-size="14" lengthAdjust="spacing" textLength="70" x="50.5" y="27.8467">UserRoles</text><line style="stroke:#181818;stroke-width:0.5;" x1="22.5" x2="122.5" y1="39" y2="39"/><text fill="#000000" font-family="sans-serif" font-size="14" lengthAdjust="spacing" text-decoration="underline" textLength="48" x="27.5" y="55.9951">role_id</text><text fill="#000000" font-family="sans-serif" font-size="14" lengthAdjust="spacing" textLength="75" x="27.5" y="72.292">role_name</text><line style="stroke:#181818;stroke-width:0.5;" x1="22.5" x2="122.5" y1="79.5938" y2="79.5938"/></g><!--class Notifications--><g id="elem_Notifications"><rect codeLine="82" fill="#F1F1F1" height="113.1875" id="Notifications" rx="2.5" ry="2.5" style="stroke:#181818;stroke-width:0.5;" width="134" x="365.5" y="222"/><ellipse cx="385" cy="238" fill="#DA70D6" rx="11" ry="11" style="stroke:#181818;stroke-width:1.0;"/><path d="M385.4375,235.5313 L387.2813,235.5313 L387.2813,237.125 C387.2813,237.5156 387.3125,237.6875 387.4063,237.8281 C387.5625,238.0781 387.8438,238.2344 388.1406,238.2344 C388.4063,238.2344 388.6563,238.1094 388.8281,237.8906 C388.9688,237.7188 388.9844,237.5938 388.9844,237.125 L388.9844,233.8438 L380.2188,233.8438 L380.2188,237.125 C380.2188,237.5156 380.25,237.6875 380.3281,237.8281 C380.4844,238.0938 380.7813,238.2344 381.0625,238.2344 C381.3438,238.2344 381.5938,238.1094 381.7656,237.8906 C381.875,237.7188 381.9063,237.5781 381.9063,237.125 L381.9063,235.5313 L383.7344,235.5313 L383.7344,242.0469 L382.625,242.0469 C382.1875,242.0469 382.0625,242.0625 381.9063,242.1719 C381.6563,242.3281 381.5,242.6094 381.5,242.9063 C381.5,243.1563 381.6406,243.4219 381.8594,243.5781 C382.0156,243.7031 382.2344,243.75 382.625,243.75 L386.5625,243.75 C386.8906,243.75 387.1563,243.7031 387.2656,243.625 C387.5313,243.4844 387.6719,243.1875 387.6719,242.9063 C387.6719,242.625 387.5469,242.375 387.3125,242.2031 C387.1563,242.0781 387.0156,242.0469 386.5625,242.0469 L385.4375,242.0469 L385.4375,235.5313 Z " fill="#000000"/><text fill="#000000" font-family="sans-serif" font-size="14" lengthAdjust="spacing" textLength="92" x="400" y="242.8467">Notifications</text><line style="stroke:#181818;stroke-width:0.5;" x1="366.5" x2="498.5" y1="254" y2="254"/><text fill="#000000" font-family="sans-serif" font-size="14" lengthAdjust="spacing" text-decoration="underline" textLength="104" x="371.5" y="270.9951">notification_id</text><text fill="#0000FF" font-family="sans-serif" font-size="14" lengthAdjust="spacing" textLength="50" x="371.5" y="287.292">user_id</text><text fill="#000000" font-family="sans-serif" font-size="14" lengthAdjust="spacing" textLength="122" x="371.5" y="303.5889">notification_text</text><text fill="#000000" font-family="sans-serif" font-size="14" lengthAdjust="spacing" textLength="80" x="371.5" y="319.8857">timestamp</text><line style="stroke:#181818;stroke-width:0.5;" x1="366.5" x2="498.5" y1="327.1875" y2="327.1875"/></g><!--class IncidentStatus--><g id="elem_IncidentStatus"><rect codeLine="89" fill="#F1F1F1" height="80.5938" id="IncidentStatus" rx="2.5" ry="2.5" style="stroke:#181818;stroke-width:0.5;" width="145" x="790" y="509.5"/><ellipse cx="808.6" cy="525.5" fill="#DA70D6" rx="11" ry="11" style="stroke:#181818;stroke-width:1.0;"/><path d="M809.0375,523.0313 L810.8813,523.0313 L810.8813,524.625 C810.8813,525.0156 810.9125,525.1875 811.0063,525.3281 C811.1625,525.5781 811.4438,525.7344 811.7406,525.7344 C812.0063,525.7344 812.2563,525.6094 812.4281,525.3906 C812.5688,525.2188 812.5844,525.0938 812.5844,524.625 L812.5844,521.3438 L803.8188,521.3438 L803.8188,524.625 C803.8188,525.0156 803.85,525.1875 803.9281,525.3281 C804.0844,525.5938 804.3813,525.7344 804.6625,525.7344 C804.9438,525.7344 805.1938,525.6094 805.3656,525.3906 C805.475,525.2188 805.5063,525.0781 805.5063,524.625 L805.5063,523.0313 L807.3344,523.0313 L807.3344,529.5469 L806.225,529.5469 C805.7875,529.5469 805.6625,529.5625 805.5063,529.6719 C805.2563,529.8281 805.1,530.1094 805.1,530.4063 C805.1,530.6563 805.2406,530.9219 805.4594,531.0781 C805.6156,531.2031 805.8344,531.25 806.225,531.25 L810.1625,531.25 C810.4906,531.25 810.7563,531.2031 810.8656,531.125 C811.1313,530.9844 811.2719,530.6875 811.2719,530.4063 C811.2719,530.125 811.1469,529.875 810.9125,529.7031 C810.7563,529.5781 810.6156,529.5469 810.1625,529.5469 L809.0375,529.5469 L809.0375,523.0313 Z " fill="#000000"/><text fill="#000000" font-family="sans-serif" font-size="14" lengthAdjust="spacing" textLength="105" x="823.4" y="530.3467">IncidentStatus</text><line style="stroke:#181818;stroke-width:0.5;" x1="791" x2="934" y1="541.5" y2="541.5"/><text fill="#000000" font-family="sans-serif" font-size="14" lengthAdjust="spacing" text-decoration="underline" textLength="64" x="796" y="558.4951">status_id</text><text fill="#000000" font-family="sans-serif" font-size="14" lengthAdjust="spacing" textLength="133" x="796" y="574.792">status_description</text><line style="stroke:#181818;stroke-width:0.5;" x1="791" x2="934" y1="582.0938" y2="582.0938"/></g><!--class Feedback--><g id="elem_Feedback"><rect codeLine="94" fill="#F1F1F1" height="96.8906" id="Feedback" rx="2.5" ry="2.5" style="stroke:#181818;stroke-width:0.5;" width="118" x="212.5" y="230"/><ellipse cx="234.7" cy="246" fill="#DA70D6" rx="11" ry="11" style="stroke:#181818;stroke-width:1.0;"/><path d="M235.1375,243.5313 L236.9813,243.5313 L236.9813,245.125 C236.9813,245.5156 237.0125,245.6875 237.1063,245.8281 C237.2625,246.0781 237.5438,246.2344 237.8406,246.2344 C238.1063,246.2344 238.3563,246.1094 238.5281,245.8906 C238.6688,245.7188 238.6844,245.5938 238.6844,245.125 L238.6844,241.8438 L229.9188,241.8438 L229.9188,245.125 C229.9188,245.5156 229.95,245.6875 230.0281,245.8281 C230.1844,246.0938 230.4813,246.2344 230.7625,246.2344 C231.0438,246.2344 231.2938,246.1094 231.4656,245.8906 C231.575,245.7188 231.6063,245.5781 231.6063,245.125 L231.6063,243.5313 L233.4344,243.5313 L233.4344,250.0469 L232.325,250.0469 C231.8875,250.0469 231.7625,250.0625 231.6063,250.1719 C231.3563,250.3281 231.2,250.6094 231.2,250.9063 C231.2,251.1563 231.3406,251.4219 231.5594,251.5781 C231.7156,251.7031 231.9344,251.75 232.325,251.75 L236.2625,251.75 C236.5906,251.75 236.8563,251.7031 236.9656,251.625 C237.2313,251.4844 237.3719,251.1875 237.3719,250.9063 C237.3719,250.625 237.2469,250.375 237.0125,250.2031 C236.8563,250.0781 236.7156,250.0469 236.2625,250.0469 L235.1375,250.0469 L235.1375,243.5313 Z " fill="#000000"/><text fill="#000000" font-family="sans-serif" font-size="14" lengthAdjust="spacing" textLength="70" x="250.3" y="250.8467">Feedback</text><line style="stroke:#181818;stroke-width:0.5;" x1="213.5" x2="329.5" y1="262" y2="262"/><text fill="#000000" font-family="sans-serif" font-size="14" lengthAdjust="spacing" text-decoration="underline" textLength="88" x="218.5" y="278.9951">feedback_id</text><text fill="#0000FF" font-family="sans-serif" font-size="14" lengthAdjust="spacing" textLength="50" x="218.5" y="295.292">user_id</text><text fill="#000000" font-family="sans-serif" font-size="14" lengthAdjust="spacing" textLength="106" x="218.5" y="311.5889">feedback_text</text><line style="stroke:#181818;stroke-width:0.5;" x1="213.5" x2="329.5" y1="318.8906" y2="318.8906"/></g><!--link Users to Incidents--><g id="link_Users_Incidents"><path codeLine="100" d="M99.8189,205.32 C112.787,181.056 130.95,156.751 155.5,143 C172.561,133.443 179.956,142.323 199.5,143 C340.643,147.892 392.661,97.109 516.5,165 C522.841,168.476 528.837,172.659 534.481,177.338 " fill="none" id="Users-Incidents" style="stroke:#181818;stroke-width:1.0;"/><text fill="#000000" font-family="sans-serif" font-size="13" lengthAdjust="spacing" textLength="42" x="156.5" y="131.0669">author</text><text fill="#000000" font-family="sans-serif" font-size="13" lengthAdjust="spacing" textLength="8" x="94.1144" y="194.4623">1</text><text fill="#000000" font-family="sans-serif" font-size="13" lengthAdjust="spacing" textLength="23" x="503.4869" y="163.1923">0..*</text></g><!--link Users to Users_Archive--><g id="link_Users_Users_Archive"><path codeLine="101" d="M72.5,351.721 C72.5,393.351 72.5,445.211 72.5,485.311 " fill="none" id="Users-Users_Archive" style="stroke:#181818;stroke-width:1.0;"/><text fill="#000000" font-family="sans-serif" font-size="13" lengthAdjust="spacing" textLength="55" x="73.5" y="435.0669">archived</text><text fill="#000000" font-family="sans-serif" font-size="13" lengthAdjust="spacing" textLength="8" x="64.1313" y="371.2456">1</text><text fill="#000000" font-family="sans-serif" font-size="13" lengthAdjust="spacing" textLength="24" x="47.1875" y="474.463">0..1</text></g><!--link Incidents to Incidents_Archive--><g id="link_Incidents_Incidents_Archive"><path codeLine="102" d="M534.435,371.363 C528.548,378.495 522.53,385.458 516.5,392 C499.255,410.709 457.223,447.906 418.332,481.398 " fill="none" id="Incidents-Incidents_Archive" style="stroke:#181818;stroke-width:1.0;"/><text fill="#000000" font-family="sans-serif" font-size="13" lengthAdjust="spacing" textLength="55" x="485.5" y="435.0669">archived</text><text fill="#000000" font-family="sans-serif" font-size="13" lengthAdjust="spacing" textLength="8" x="518.3337" y="378.2923">1</text><text fill="#000000" font-family="sans-serif" font-size="13" lengthAdjust="spacing" textLength="24" x="425.9368" y="472.165">0..1</text></g><!--link Users to Comments--><g id="link_Users_Comments"><path codeLine="103" d="M121.18,219.409 C141.581,198.683 166.965,177.479 194.5,165 C282.19,125.257 313.849,147.895 410,143 C602.327,133.208 770.261,84.138 915.5,165 C935.554,176.165 951.537,194.918 963.681,213.996 " fill="none" id="Users-Comments" style="stroke:#181818;stroke-width:1.0;"/><text fill="#000000" font-family="sans-serif" font-size="13" lengthAdjust="spacing" textLength="39" x="411" y="131.0669">writes</text><text fill="#000000" font-family="sans-serif" font-size="13" lengthAdjust="spacing" textLength="8" x="128.9174" y="206.7212">1</text><text fill="#000000" font-family="sans-serif" font-size="13" lengthAdjust="spacing" textLength="23" x="961.5629" y="202.7171">0..*</text></g><!--link Incidents to Comments--><g id="link_Incidents_Comments"><path codeLine="104" d="M666.835,206.516 C697.911,179.09 737.448,152.2 780,143 C839.633,130.107 865.023,130.731 915.5,165 C933.798,177.422 949.056,195.686 961.083,213.948 " fill="none" id="Incidents-Comments" style="stroke:#181818;stroke-width:1.0;"/><text fill="#000000" font-family="sans-serif" font-size="13" lengthAdjust="spacing" textLength="37" x="781" y="131.0669">about</text><text fill="#000000" font-family="sans-serif" font-size="13" lengthAdjust="spacing" textLength="8" x="674.5279" y="194.8821">1</text><text fill="#000000" font-family="sans-serif" font-size="13" lengthAdjust="spacing" textLength="23" x="933.2796" y="203.115">0..*</text></g><!--link Users to Notifications--><g id="link_Users_Notifications"><path codeLine="105" d="M121.08,218.829 C151.19,187.647 192.94,153.772 239.5,143 C287.225,131.958 308.926,134.807 347.5,165 C367.37,180.553 384.955,201.847 398.9,221.791 " fill="none" id="Users-Notifications" style="stroke:#181818;stroke-width:1.0;"/><text fill="#000000" font-family="sans-serif" font-size="13" lengthAdjust="spacing" textLength="54" x="240.5" y="131.0669">receives</text><text fill="#000000" font-family="sans-serif" font-size="13" lengthAdjust="spacing" textLength="8" x="129.1313" y="222.9341">1</text><text fill="#000000" font-family="sans-serif" font-size="13" lengthAdjust="spacing" textLength="23" x="370.4034" y="211.0291">0..*</text></g><!--link Users to Feedback--><g id="link_Users_Feedback"><path codeLine="106" d="M121.181,278.5 C148.682,278.5 183.262,278.5 212.321,278.5 " fill="none" id="Users-Feedback" style="stroke:#181818;stroke-width:1.0;"/><text fill="#000000" font-family="sans-serif" font-size="13" lengthAdjust="spacing" textLength="55" x="139.25" y="271.5669">provides</text><text fill="#000000" font-family="sans-serif" font-size="13" lengthAdjust="spacing" textLength="8" x="128.9185" y="274.4911">1</text><text fill="#000000" font-family="sans-serif" font-size="13" lengthAdjust="spacing" textLength="23" x="181.5905" y="291.4005">0..*</text></g><!--link UserRoles to Users--><g id="link_UserRoles_Users"><path codeLine="107" d="M72.5,88.127 C72.5,120.259 72.5,166.398 72.5,205.089 " fill="none" id="UserRoles-Users" style="stroke:#181818;stroke-width:1.0;"/><text fill="#000000" font-family="sans-serif" font-size="13" lengthAdjust="spacing" textLength="24" x="73.5" y="131.0669">role</text><text fill="#000000" font-family="sans-serif" font-size="13" lengthAdjust="spacing" textLength="8" x="63.8875" y="107.6046">1</text><text fill="#000000" font-family="sans-serif" font-size="13" lengthAdjust="spacing" textLength="7" x="65.1664" y="194.4608">*</text></g><!--link IncidentTypes to Incidents--><g id="link_IncidentTypes_Incidents"><path codeLine="108" d="M600.5,88.127 C600.5,109.506 600.5,137.085 600.5,164.546 " fill="none" id="IncidentTypes-Incidents" style="stroke:#181818;stroke-width:1.0;"/><text fill="#000000" font-family="sans-serif" font-size="13" lengthAdjust="spacing" textLength="29" x="601.5" y="131.0669">type</text><text fill="#000000" font-family="sans-serif" font-size="13" lengthAdjust="spacing" textLength="8" x="591.8875" y="107.6046">1</text><text fill="#000000" font-family="sans-serif" font-size="13" lengthAdjust="spacing" textLength="7" x="593.2758" y="153.828">*</text></g><!--link Incidents to IncidentReports--><g id="link_Incidents_IncidentReports"><path codeLine="109" d="M666.502,278.5 C692.317,278.5 722.059,278.5 748.667,278.5 " fill="none" id="Incidents-IncidentReports" style="stroke:#181818;stroke-width:1.0;"/><text fill="#000000" font-family="sans-serif" font-size="13" lengthAdjust="spacing" textLength="46" x="684.75" y="271.5669">reports</text><text fill="#000000" font-family="sans-serif" font-size="13" lengthAdjust="spacing" textLength="8" x="674.596" y="274.692">1</text><text fill="#000000" font-family="sans-serif" font-size="13" lengthAdjust="spacing" textLength="23" x="717.978" y="291.2324">0..*</text></g><!--link Incidents to Vehicle--><g id="link_Incidents_Vehicle"><path codeLine="110" d="M565.363,392.231 C553.449,430.454 540.778,471.107 531.326,501.434 " fill="none" id="Incidents-Vehicle" style="stroke:#181818;stroke-width:1.0;"/><text fill="#000000" font-family="sans-serif" font-size="13" lengthAdjust="spacing" textLength="30" x="557.5" y="435.0669">uses</text><text fill="#000000" font-family="sans-serif" font-size="13" lengthAdjust="spacing" textLength="8" x="554.7335" y="412.4386">1</text><text fill="#000000" font-family="sans-serif" font-size="13" lengthAdjust="spacing" textLength="7" x="525.9895" y="490.284">*</text></g><!--link Incidents to IncidentStatus--><g id="link_Incidents_IncidentStatus"><path codeLine="111" d="M666.614,347.506 C716.336,398.652 782.743,466.96 824.052,509.451 " fill="none" id="Incidents-IncidentStatus" style="stroke:#181818;stroke-width:1.0;"/><text fill="#000000" font-family="sans-serif" font-size="13" lengthAdjust="spacing" textLength="40" x="756.5" y="435.0669">status</text><text fill="#000000" font-family="sans-serif" font-size="13" lengthAdjust="spacing" textLength="8" x="674.2827" y="351.2929">1</text><text fill="#000000" font-family="sans-serif" font-size="13" lengthAdjust="spacing" textLength="7" x="809.8422" y="498.3058">*</text></g><!--link Incidents to Routes--><g id="link_Incidents_Routes"><path codeLine="112" d="M635.637,392.231 C648.63,433.916 662.523,478.49 672.161,509.411 " fill="none" id="Incidents-Routes" style="stroke:#181818;stroke-width:1.0;"/><text fill="#000000" font-family="sans-serif" font-size="13" lengthAdjust="spacing" textLength="34" x="651.5" y="435.0669">route</text><text fill="#000000" font-family="sans-serif" font-size="13" lengthAdjust="spacing" textLength="8" x="629.729" y="412.4386">1</text><text fill="#000000" font-family="sans-serif" font-size="13" lengthAdjust="spacing" textLength="7" x="662.5377" y="498.5578">*</text></g><!--SRC=[jLJBRjim4BphAnYTug1DscjW670B9p2IfeNg5CZ9eAarJ5GI1P9oN1Jzz_8XKQAzIj93TT9oXxEpBvxbiEKLaDNyq_tY_30XhA1AaGEPJidvwfsGRCVp2PdDahCM-IrRVfbdJ-kxnPF5JvlPONhLzFwRhzbYUViG_4mKGbvlYWOiq5cp9F7n7XL8DI6_4sA-8N5Z76iJs3ciKT4Id54RUSz2viu8fwhf4KC1ZaUA0XpPdoZkUcwJsyE_nKT3Ki-KhtEgeG-ph1ZFeT9eYhnrXZ2QwyBJvQ2OvBNced9s8HWDXkP8dhJHEz4h7hf27Fsh1XInXnrd1UvJckf6eIuf6jrVsdB3ODAdIFelLVf_bc6aBPz5MOvrXNdVovN4dD74T2mQ3ZgeDQKiwzFgh4nRK2bHlvmnB4ZW-U6xXp4SDxQpBLbqK3Nb1cJFcTdMegBYfdiBbTMbbq4j95vhwLnlAtMBpK5JNgZeAEgjtUpCxFk8-6AetIPkDpXSVX2QRxaVCfIW6W1Udu88_PPH-EwM3Gjyj8QjYHR-1Y3VKFOJezcsljUr1wJJRSZTaqdIZobvJz8FbvSNAGdxJQv9wbSl7U8yqFn5pwq3jukP9Zr7VENaxOYl8MgwhRR0PydD_9wmOr2wCJEC4aRJOA4I69Zm2aLtPRV0MegzYTi2tJY6z2xQSZX2u-b5keTWY8lgQtTsDA6ZPVDYtIzMONEXVJGiqBHz31NFfGNxmHk1-rV39sR-qhy0]--></g></svg>