<svg width="102" height="102" viewBox="0 0 102 102" fill="none" xmlns="http://www.w3.org/2000/svg">
<rect width="102" height="102" fill="#DFDFDF"/>
<rect width="375" height="812" transform="translate(-131 -164)" fill="white"/>
<path d="M62.9727 23C61.0008 22.9997 59.0585 23.4794 57.3145 24.3975C55.5705 25.3155 54.0773 26.6442 52.9646 28.2682L52.9992 28.2164C52.3066 28.1818 51.5794 28.1818 50.8521 28.1818C43.1988 28.1818 37 29.0455 37 35.0909V52.3636C37 53.8836 37.6753 55.2482 38.7315 56.1982V59.2727C38.7315 59.7308 38.9139 60.1702 39.2387 60.4941C39.5634 60.818 40.0038 61 40.463 61H42.1945C42.6538 61 43.0942 60.818 43.4189 60.4941C43.7436 60.1702 43.9261 59.7308 43.9261 59.2727V57.5455H57.7782V59.2727C57.7782 59.7308 57.9606 60.1702 58.2853 60.4941C58.61 60.818 59.0505 61 59.5097 61H61.2412C61.7004 61 62.1409 60.818 62.4656 60.4941C62.7903 60.1702 62.9727 59.7308 62.9727 59.2727V56.1982C64.0289 55.2482 64.7042 53.8836 64.7042 52.3636V47.0436C67.7176 46.5858 70.4475 45.0122 72.3498 42.6364C74.2521 40.2606 75.1872 37.257 74.9688 34.2242C74.7504 31.1913 73.3945 28.3519 71.1713 26.2718C68.9481 24.1916 66.0208 23.0234 62.9727 23ZM43.0603 54.0909C42.3715 54.0909 41.7108 53.8179 41.2238 53.332C40.7367 52.8462 40.463 52.1872 40.463 51.5C40.463 50.8128 40.7367 50.1538 41.2238 49.668C41.7108 49.1821 42.3715 48.9091 43.0603 48.9091C43.7491 48.9091 44.4098 49.1821 44.8969 49.668C45.3839 50.1538 45.6576 50.8128 45.6576 51.5C45.6576 52.1872 45.3839 52.8462 44.8969 53.332C44.4098 53.8179 43.7491 54.0909 43.0603 54.0909ZM40.463 43.7273V35.0909H50.8521C50.8521 38.4764 52.2546 41.5336 54.5056 43.7273H40.463ZM58.6439 54.0909C57.9551 54.0909 57.2945 53.8179 56.8074 53.332C56.3203 52.8462 56.0467 52.1872 56.0467 51.5C56.0467 50.8128 56.3203 50.1538 56.8074 49.668C57.2945 49.1821 57.9551 48.9091 58.6439 48.9091C59.3328 48.9091 59.9934 49.1821 60.4805 49.668C60.9676 50.1538 61.2412 50.8128 61.2412 51.5C61.2412 52.1872 60.9676 52.8462 60.4805 53.332C59.9934 53.8179 59.3328 54.0909 58.6439 54.0909ZM62.9727 43.7273C60.6766 43.7273 58.4745 42.8174 56.8509 41.1977C55.2273 39.5781 54.3151 37.3814 54.3151 35.0909C54.3151 32.8004 55.2273 30.6037 56.8509 28.9841C58.4745 27.3644 60.6766 26.4545 62.9727 26.4545C65.2689 26.4545 67.4709 27.3644 69.0946 28.9841C70.7182 30.6037 71.6303 32.8004 71.6303 35.0909C71.6303 37.3814 70.7182 39.5781 69.0946 41.1977C67.4709 42.8174 65.2689 43.7273 62.9727 43.7273ZM61.2412 28.1818H64.7042V36.8182H61.2412V28.1818ZM61.2412 38.5455H64.7042V42H61.2412V38.5455Z" fill="black"/>
<path d="M3.56292 49.3819C2.51136 49.8041 1.60992 50.5327 0.974861 51.4739C0.339803 52.4151 0.000251849 53.5257 0 54.6624V99.1529C0 101.165 2.02406 102.541 3.88521 101.794L28.3333 90.6252V49.1989C28.3333 41.2238 28.3333 40 24.5703 40.9484L3.56292 49.3819ZM51 64.5C48.5084 64.5 48.5 64.5 44 64C38 62.5 37.3504 63.0924 34 58.2758V90.6234L68 101.998V58.2775C64.6496 63.0924 64.5 62.5 57 64C53 64.5 53.4916 64.5 51 64.5ZM98.1148 39.6439L73.6667 50.8127V102L98.4371 92.056C99.4888 91.634 100.39 90.9054 101.025 89.9642C101.661 89.0229 102 87.9122 102 86.7755V42.285C102 40.273 99.9759 38.8974 98.1148 39.6439Z" fill="black"/>
<path d="M49.9115 24.4956C42.8169 14.2105 41.5 13.1549 41.5 9.375C41.5 4.19731 45.6973 0 50.875 0C56.0527 0 60.25 4.19731 60.25 9.375C60.25 13.1549 58.9331 14.2105 51.8385 24.4956C51.3729 25.1682 50.3771 25.1681 49.9115 24.4956ZM50.875 13.2812C53.0324 13.2812 54.7812 11.5324 54.7812 9.375C54.7812 7.21763 53.0324 5.46875 50.875 5.46875C48.7176 5.46875 46.9688 7.21763 46.9688 9.375C46.9688 11.5324 48.7176 13.2812 50.875 13.2812Z" fill="black"/>
</svg>
