<svg width="129" height="35" viewBox="0 0 129 35" fill="none" xmlns="http://www.w3.org/2000/svg">
<path d="M0.163203 27V1.8H6.8592L16.0392 16.74L10.6032 16.704L19.8912 1.8H26.3712V27H18.8832V20.988C18.8832 18.828 18.9312 16.884 19.0272 15.156C19.1472 13.428 19.3392 11.712 19.6032 10.008L20.4672 12.276L14.3832 21.708H12.0072L6.0312 12.276L6.9312 10.008C7.1952 11.616 7.3752 13.272 7.4712 14.976C7.5912 16.656 7.6512 18.66 7.6512 20.988V27H0.163203ZM31.7602 34.92V7.74H38.5282L38.9242 11.988L37.4482 11.664C37.6162 10.824 38.0242 10.08 38.6722 9.432C39.3202 8.784 40.1362 8.28 41.1202 7.92C42.1282 7.536 43.2202 7.344 44.3962 7.344C45.9802 7.344 47.3842 7.776 48.6082 8.64C49.8562 9.48 50.8282 10.656 51.5242 12.168C52.2442 13.656 52.6042 15.384 52.6042 17.352C52.6042 19.296 52.2442 21.024 51.5242 22.536C50.8042 24.024 49.8082 25.2 48.5362 26.064C47.2882 26.904 45.8482 27.324 44.2162 27.324C43.1362 27.324 42.1162 27.132 41.1562 26.748C40.2202 26.364 39.4282 25.836 38.7802 25.164C38.1322 24.468 37.7002 23.676 37.4842 22.788L39.1042 22.284V34.92H31.7602ZM42.2002 21.384C42.8962 21.384 43.4842 21.228 43.9642 20.916C44.4442 20.604 44.8042 20.148 45.0442 19.548C45.3082 18.948 45.4402 18.216 45.4402 17.352C45.4402 16.488 45.3082 15.756 45.0442 15.156C44.8042 14.532 44.4442 14.064 43.9642 13.752C43.4842 13.44 42.8962 13.284 42.2002 13.284C41.5042 13.284 40.9042 13.44 40.4002 13.752C39.9202 14.064 39.5482 14.532 39.2842 15.156C39.0442 15.756 38.9242 16.488 38.9242 17.352C38.9242 18.216 39.0442 18.948 39.2842 19.548C39.5482 20.148 39.9202 20.604 40.4002 20.916C40.9042 21.228 41.5042 21.384 42.2002 21.384ZM63.3578 21.6L59.7578 17.064L68.6498 7.74H78.1538L63.3578 21.6ZM56.1938 27V0.36H63.5018V27H56.1938ZM69.2978 27L62.8898 17.964L68.0018 14.292L77.6498 27H69.2978ZM92.3083 27.36C90.1483 27.36 88.2283 27.036 86.5483 26.388C84.8923 25.74 83.4883 24.828 82.3363 23.652C81.1843 22.476 80.3083 21.084 79.7083 19.476C79.1323 17.868 78.8443 16.116 78.8443 14.22C78.8443 12.3 79.1683 10.548 79.8163 8.964C80.4883 7.356 81.4483 5.964 82.6963 4.788C83.9443 3.612 85.4203 2.7 87.1243 2.052C88.8523 1.404 90.7723 1.08 92.8843 1.08C94.3483 1.08 95.7043 1.26 96.9523 1.62C98.2243 1.98 99.3643 2.472 100.372 3.096C101.404 3.696 102.292 4.38 103.036 5.148L98.4283 10.044C97.9483 9.588 97.4323 9.192 96.8803 8.856C96.3283 8.496 95.7163 8.22 95.0443 8.028C94.3723 7.812 93.6163 7.704 92.7763 7.704C91.9123 7.704 91.1203 7.872 90.4003 8.208C89.6803 8.52 89.0563 8.964 88.5283 9.54C88.0003 10.116 87.5803 10.812 87.2683 11.628C86.9803 12.42 86.8363 13.284 86.8363 14.22C86.8363 15.156 86.9923 16.032 87.3043 16.848C87.6163 17.64 88.0483 18.324 88.6003 18.9C89.1523 19.476 89.8123 19.932 90.5803 20.268C91.3483 20.58 92.1883 20.736 93.1003 20.736C93.7243 20.736 94.2883 20.64 94.7923 20.448C95.3203 20.232 95.7643 19.956 96.1243 19.62C96.5083 19.26 96.8083 18.84 97.0243 18.36C97.2403 17.856 97.3483 17.316 97.3483 16.74V15.696L98.3563 17.424H91.9483V11.952H104.332C104.356 12.216 104.38 12.648 104.404 13.248C104.452 13.848 104.476 14.448 104.476 15.048C104.5 15.624 104.512 16.02 104.512 16.236C104.512 17.844 104.212 19.332 103.612 20.7C103.012 22.068 102.16 23.244 101.056 24.228C99.9763 25.212 98.6923 25.98 97.2043 26.532C95.7163 27.084 94.0843 27.36 92.3083 27.36ZM117.867 27.36C115.779 27.36 113.919 26.928 112.287 26.064C110.655 25.2 109.371 24.024 108.435 22.536C107.499 21.024 107.031 19.296 107.031 17.352C107.031 15.408 107.499 13.692 108.435 12.204C109.371 10.692 110.655 9.504 112.287 8.64C113.919 7.776 115.779 7.344 117.867 7.344C119.955 7.344 121.803 7.776 123.411 8.64C125.043 9.504 126.315 10.692 127.227 12.204C128.163 13.692 128.631 15.408 128.631 17.352C128.631 19.296 128.163 21.024 127.227 22.536C126.315 24.024 125.043 25.2 123.411 26.064C121.803 26.928 119.955 27.36 117.867 27.36ZM117.867 21.24C118.515 21.24 119.091 21.072 119.595 20.736C120.123 20.4 120.531 19.944 120.819 19.368C121.107 18.768 121.251 18.096 121.251 17.352C121.251 16.584 121.107 15.912 120.819 15.336C120.531 14.736 120.123 14.268 119.595 13.932C119.091 13.596 118.515 13.428 117.867 13.428C117.195 13.428 116.595 13.596 116.067 13.932C115.563 14.268 115.155 14.736 114.843 15.336C114.555 15.912 114.411 16.584 114.411 17.352C114.411 18.096 114.555 18.768 114.843 19.368C115.155 19.944 115.563 20.4 116.067 20.736C116.595 21.072 117.195 21.24 117.867 21.24Z" 
fill="white"/>
</svg>
